<?xml version="1.0" encoding="UTF-8"?>
<svg width="78px" height="100px" viewBox="0 0 78 100" version="1.1" xmlns="http://www.w3.org/2000/svg" xmlns:xlink="http://www.w3.org/1999/xlink">
    <!-- Generator: Sketch 42 (36781) - http://www.bohemiancoding.com/sketch -->
    <title>is-dead</title>
    <desc>Created with Sketch.</desc>
    <defs></defs>
    <g id="Page-1" stroke="none" stroke-width="1" fill="none" fill-rule="evenodd">
        <path d="M21,56.89363 C-2.84989137,52.9683029 -16.279188,1.15261458e-14 37.5507383,0 C91.3806646,0 84.0340383,56.89363 56,58.1604023 C55.629092,88.4073673 56,100 56,100 L21,100 C21,100 21,74.6687307 21,56.89363 Z M46.5,65.9971664 L46.5,99.7784453 L48.5,99.7784453 L48.5,65.9971664 L46.5,65.9971664 Z M37.5,65.9971664 L37.5,99.7784453 L39.5,99.7784453 L39.5,65.9971664 L37.5,65.9971664 Z M28.5,65.9971664 L28.5,99.7784453 L30.5,99.7784453 L30.5,65.9971664 L28.5,65.9971664 Z M50.4512228,33.2833292 C54.9410162,33.2833292 58.5807128,29.3033064 58.5807128,24.3936995 C58.5807128,19.4840926 54.9410162,15.5040698 50.4512228,15.5040698 C45.9614294,15.5040698 42.3217328,19.4840926 42.3217328,24.3936995 C42.3217328,29.3033064 45.9614294,33.2833292 50.4512228,33.2833292 Z M26.3879323,33.2833292 C30.8777257,33.2833292 34.5174224,29.3033064 34.5174224,24.3936995 C34.5174224,19.4840926 30.8777257,15.5040698 26.3879323,15.5040698 C21.898139,15.5040698 18.2584423,19.4840926 18.2584423,24.3936995 C18.2584423,29.3033064 21.898139,33.2833292 26.3879323,33.2833292 Z" id="is-dead" fill="#D0011B"></path>
    </g>
</svg>